ply
format ascii 1.0
comment VCGLIB generated
element vertex 24
property float x
property float y
property float z
property float nx
property float ny
property float nz
property float texture_u
property float texture_v
element face 12
property list uchar int vertex_indices
end_header
1 -1 -1 0 0 -1 0.000000 0.000000
-1 1 -1 0 0 -1 1.000000 1.000000
1 1 -1 0 0 -1 0.000000 1.000000
-1 1 1 0 0 1 0.000000 1.000000
1 -1. 1 0 0 1 1 0.000000
1 1 1 0 0 1 1.000000 1.000000
1 1 1 1 -2.533197e-07 2.533196e-07 0.000000 1.000000
1 -1 -1 1 -2.533197e-07 2.533196e-07 1.000000 0.000000
1 1 -1 1 -2.533197e-07 2.533196e-07 1.000000 1.000000
1 -1 1 -2.384187e-07 -1 -2.384186e-07 1.000000 1.000000
-1 -1 -1 -2.384187e-07 -1 -2.384186e-07 0.000000 0.000000
1 -1 -1 -2.384187e-07 -1 -2.384186e-07 1.000000 0.000000
-1 -1 -1 -1 0 0 0.000000 0.000000
-1 1 1 -1 0 0 1.000000 1.000000
-1 1 -1 -1 0 0 0.000000 1.000000
1 1 -1 2.533197e-07 1 2.533197e-07 1.000000 1.000000
-1 1 1 2.533197e-07 1 2.533197e-07 0.000000 0.000000
1 1 1 2.533197e-07 1 2.533197e-07 1.000000 0.000000
-1 -1 -1 0 0 -1 1.000000 0.000000
-1 -1 1 0 0 1 0.000000 0.000000
1 -1 1 1 -2.533197e-07 2.533196e-07 0.000000 0.000000
-1 -1 1 -2.384187e-07 -1 -2.384186e-07 0.000000 1.000000
-1 -1 1 -1 0 0 1.000000 0.000000
-1 1 -1 2.533197e-07 1 2.533197e-07 0.000000 1.000000
3 1 2 0 
3 1 0 18 
3 4 5 3 
3 4 3 19 
3 7 8 6 
3 7 6 20 
3 10 11 9 
3 10 9 21 
3 13 14 12 
3 13 12 22 
3 16 17 15 
3 16 15 23 
